<mxfile host="app.diagrams.net" modified="2021-08-22T14:16:05.148Z" agent="5.0 (Windows NT 10.0; Win64; x64) AppleWebKit/537.36 (KHTML, like Gecko) Chrome/92.0.4515.131 Safari/537.36" etag="Xb7h675bU60cK6AYPcu9" version="14.9.8" type="github">
  <diagram name="通用审核" id="13e1069c-82ec-6db2-03f1-153e76fe0fe0">
    <mxGraphModel dx="678" dy="627" grid="1" gridSize="10" guides="1" tooltips="1" connect="1" arrows="1" fold="1" page="1" pageScale="1" pageWidth="1100" pageHeight="850" background="none" math="0" shadow="0">
      <root>
        <mxCell id="0" />
        <mxCell id="1" parent="0" />
        <mxCell id="7baba1c4bc27f4b0-2" value="备课检查" style="shape=umlLifeline;perimeter=lifelinePerimeter;whiteSpace=wrap;html=1;container=1;collapsible=0;recursiveResize=0;outlineConnect=0;rounded=1;shadow=0;comic=0;labelBackgroundColor=none;strokeWidth=1;fontFamily=Verdana;fontSize=12;align=center;" parent="1" vertex="1">
          <mxGeometry x="255" y="80" width="100" height="320" as="geometry" />
        </mxCell>
        <mxCell id="7baba1c4bc27f4b0-10" value="" style="html=1;points=[];perimeter=orthogonalPerimeter;rounded=0;shadow=0;comic=0;labelBackgroundColor=none;strokeWidth=1;fontFamily=Verdana;fontSize=12;align=center;" parent="7baba1c4bc27f4b0-2" vertex="1">
          <mxGeometry x="45" y="100" width="10" height="150" as="geometry" />
        </mxCell>
        <mxCell id="7baba1c4bc27f4b0-8" value="我的申请" style="shape=umlLifeline;perimeter=lifelinePerimeter;whiteSpace=wrap;html=1;container=1;collapsible=0;recursiveResize=0;outlineConnect=0;rounded=1;shadow=0;comic=0;labelBackgroundColor=none;strokeWidth=1;fontFamily=Verdana;fontSize=12;align=center;" parent="1" vertex="1">
          <mxGeometry x="100" y="80" width="100" height="320" as="geometry" />
        </mxCell>
        <mxCell id="7baba1c4bc27f4b0-9" value="" style="html=1;points=[];perimeter=orthogonalPerimeter;rounded=0;shadow=0;comic=0;labelBackgroundColor=none;strokeWidth=1;fontFamily=Verdana;fontSize=12;align=center;" parent="7baba1c4bc27f4b0-8" vertex="1">
          <mxGeometry x="45" y="100" width="10" height="150" as="geometry" />
        </mxCell>
        <mxCell id="7baba1c4bc27f4b0-30" value="return" style="html=1;verticalAlign=bottom;endArrow=open;dashed=1;endSize=8;labelBackgroundColor=none;fontFamily=Verdana;fontSize=12;edgeStyle=elbowEdgeStyle;elbow=vertical;" parent="1" source="7baba1c4bc27f4b0-2" target="7baba1c4bc27f4b0-9" edge="1">
          <mxGeometry relative="1" as="geometry">
            <mxPoint x="800" y="626" as="targetPoint" />
            <Array as="points">
              <mxPoint x="220" y="330" />
              <mxPoint x="220" y="610" />
            </Array>
            <mxPoint x="870" y="610" as="sourcePoint" />
          </mxGeometry>
        </mxCell>
        <mxCell id="SLKJa3lYr_q1Pw39jMBz-37" value="Text" style="edgeLabel;html=1;align=center;verticalAlign=middle;resizable=0;points=[];" vertex="1" connectable="0" parent="7baba1c4bc27f4b0-30">
          <mxGeometry x="-0.4716" y="-4" relative="1" as="geometry">
            <mxPoint as="offset" />
          </mxGeometry>
        </mxCell>
        <mxCell id="SLKJa3lYr_q1Pw39jMBz-38" value="上传图片" style="edgeLabel;html=1;align=center;verticalAlign=middle;resizable=0;points=[];" vertex="1" connectable="0" parent="7baba1c4bc27f4b0-30">
          <mxGeometry x="-0.4983" y="-4" relative="1" as="geometry">
            <mxPoint x="1" as="offset" />
          </mxGeometry>
        </mxCell>
        <mxCell id="7baba1c4bc27f4b0-11" value="" style="html=1;verticalAlign=bottom;endArrow=block;entryX=0;entryY=0;labelBackgroundColor=none;fontFamily=Verdana;fontSize=12;edgeStyle=elbowEdgeStyle;elbow=vertical;" parent="1" source="7baba1c4bc27f4b0-9" target="7baba1c4bc27f4b0-10" edge="1">
          <mxGeometry relative="1" as="geometry">
            <mxPoint x="220" y="190" as="sourcePoint" />
            <Array as="points">
              <mxPoint x="228" y="180" />
            </Array>
          </mxGeometry>
        </mxCell>
        <mxCell id="SLKJa3lYr_q1Pw39jMBz-3" value="Text" style="edgeLabel;html=1;align=center;verticalAlign=middle;resizable=0;points=[];" vertex="1" connectable="0" parent="7baba1c4bc27f4b0-11">
          <mxGeometry x="-0.4759" y="2" relative="1" as="geometry">
            <mxPoint as="offset" />
          </mxGeometry>
        </mxCell>
        <mxCell id="SLKJa3lYr_q1Pw39jMBz-9" value="用户id&lt;br&gt;模块类型" style="edgeLabel;html=1;align=center;verticalAlign=middle;resizable=0;points=[];" vertex="1" connectable="0" parent="7baba1c4bc27f4b0-11">
          <mxGeometry x="-0.4759" y="1" relative="1" as="geometry">
            <mxPoint as="offset" />
          </mxGeometry>
        </mxCell>
        <mxCell id="SLKJa3lYr_q1Pw39jMBz-39" value="备课检查" style="shape=umlLifeline;perimeter=lifelinePerimeter;whiteSpace=wrap;html=1;container=1;collapsible=0;recursiveResize=0;outlineConnect=0;rounded=1;shadow=0;comic=0;labelBackgroundColor=none;strokeWidth=1;fontFamily=Verdana;fontSize=12;align=center;" vertex="1" parent="1">
          <mxGeometry x="578" y="80" width="100" height="320" as="geometry" />
        </mxCell>
        <mxCell id="SLKJa3lYr_q1Pw39jMBz-40" value="" style="html=1;points=[];perimeter=orthogonalPerimeter;rounded=0;shadow=0;comic=0;labelBackgroundColor=none;strokeWidth=1;fontFamily=Verdana;fontSize=12;align=center;" vertex="1" parent="SLKJa3lYr_q1Pw39jMBz-39">
          <mxGeometry x="45" y="100" width="10" height="150" as="geometry" />
        </mxCell>
        <mxCell id="SLKJa3lYr_q1Pw39jMBz-41" value="我的申请" style="shape=umlLifeline;perimeter=lifelinePerimeter;whiteSpace=wrap;html=1;container=1;collapsible=0;recursiveResize=0;outlineConnect=0;rounded=1;shadow=0;comic=0;labelBackgroundColor=none;strokeWidth=1;fontFamily=Verdana;fontSize=12;align=center;" vertex="1" parent="1">
          <mxGeometry x="423" y="80" width="100" height="320" as="geometry" />
        </mxCell>
        <mxCell id="SLKJa3lYr_q1Pw39jMBz-42" value="" style="html=1;points=[];perimeter=orthogonalPerimeter;rounded=0;shadow=0;comic=0;labelBackgroundColor=none;strokeWidth=1;fontFamily=Verdana;fontSize=12;align=center;" vertex="1" parent="SLKJa3lYr_q1Pw39jMBz-41">
          <mxGeometry x="45" y="100" width="10" height="150" as="geometry" />
        </mxCell>
        <mxCell id="SLKJa3lYr_q1Pw39jMBz-43" value="return" style="html=1;verticalAlign=bottom;endArrow=open;dashed=1;endSize=8;labelBackgroundColor=none;fontFamily=Verdana;fontSize=12;edgeStyle=elbowEdgeStyle;elbow=vertical;" edge="1" source="SLKJa3lYr_q1Pw39jMBz-39" target="SLKJa3lYr_q1Pw39jMBz-42" parent="1">
          <mxGeometry relative="1" as="geometry">
            <mxPoint x="1123" y="626" as="targetPoint" />
            <Array as="points">
              <mxPoint x="543" y="330" />
              <mxPoint x="543" y="610" />
            </Array>
            <mxPoint x="1193" y="610" as="sourcePoint" />
          </mxGeometry>
        </mxCell>
        <mxCell id="SLKJa3lYr_q1Pw39jMBz-44" value="Text" style="edgeLabel;html=1;align=center;verticalAlign=middle;resizable=0;points=[];" vertex="1" connectable="0" parent="SLKJa3lYr_q1Pw39jMBz-43">
          <mxGeometry x="-0.4716" y="-4" relative="1" as="geometry">
            <mxPoint as="offset" />
          </mxGeometry>
        </mxCell>
        <mxCell id="SLKJa3lYr_q1Pw39jMBz-45" value="上传图片" style="edgeLabel;html=1;align=center;verticalAlign=middle;resizable=0;points=[];" vertex="1" connectable="0" parent="SLKJa3lYr_q1Pw39jMBz-43">
          <mxGeometry x="-0.4983" y="-4" relative="1" as="geometry">
            <mxPoint x="1" as="offset" />
          </mxGeometry>
        </mxCell>
        <mxCell id="SLKJa3lYr_q1Pw39jMBz-46" value="" style="html=1;verticalAlign=bottom;endArrow=block;entryX=0;entryY=0;labelBackgroundColor=none;fontFamily=Verdana;fontSize=12;edgeStyle=elbowEdgeStyle;elbow=vertical;" edge="1" source="SLKJa3lYr_q1Pw39jMBz-42" target="SLKJa3lYr_q1Pw39jMBz-40" parent="1">
          <mxGeometry relative="1" as="geometry">
            <mxPoint x="543" y="190" as="sourcePoint" />
            <Array as="points">
              <mxPoint x="551" y="180" />
            </Array>
          </mxGeometry>
        </mxCell>
        <mxCell id="SLKJa3lYr_q1Pw39jMBz-47" value="Text" style="edgeLabel;html=1;align=center;verticalAlign=middle;resizable=0;points=[];" vertex="1" connectable="0" parent="SLKJa3lYr_q1Pw39jMBz-46">
          <mxGeometry x="-0.4759" y="2" relative="1" as="geometry">
            <mxPoint as="offset" />
          </mxGeometry>
        </mxCell>
        <mxCell id="SLKJa3lYr_q1Pw39jMBz-48" value="用户id&lt;br&gt;模块类型" style="edgeLabel;html=1;align=center;verticalAlign=middle;resizable=0;points=[];" vertex="1" connectable="0" parent="SLKJa3lYr_q1Pw39jMBz-46">
          <mxGeometry x="-0.4759" y="1" relative="1" as="geometry">
            <mxPoint as="offset" />
          </mxGeometry>
        </mxCell>
        <mxCell id="SLKJa3lYr_q1Pw39jMBz-49" value="待审核" style="shape=umlLifeline;perimeter=lifelinePerimeter;whiteSpace=wrap;html=1;container=1;collapsible=0;recursiveResize=0;outlineConnect=0;rounded=1;shadow=0;comic=0;labelBackgroundColor=none;strokeWidth=1;fontFamily=Verdana;fontSize=12;align=center;" vertex="1" parent="1">
          <mxGeometry x="275" y="460" width="100" height="390" as="geometry" />
        </mxCell>
        <mxCell id="SLKJa3lYr_q1Pw39jMBz-50" value="" style="html=1;points=[];perimeter=orthogonalPerimeter;rounded=0;shadow=0;comic=0;labelBackgroundColor=none;strokeWidth=1;fontFamily=Verdana;fontSize=12;align=center;" vertex="1" parent="SLKJa3lYr_q1Pw39jMBz-49">
          <mxGeometry x="45" y="100" width="10" height="290" as="geometry" />
        </mxCell>
        <mxCell id="SLKJa3lYr_q1Pw39jMBz-62" value="" style="endArrow=classic;html=1;exitX=1.2;exitY=0.121;exitDx=0;exitDy=0;exitPerimeter=0;entryX=1.1;entryY=0.286;entryDx=0;entryDy=0;entryPerimeter=0;" edge="1" parent="SLKJa3lYr_q1Pw39jMBz-49" source="SLKJa3lYr_q1Pw39jMBz-50" target="SLKJa3lYr_q1Pw39jMBz-50">
          <mxGeometry width="50" height="50" relative="1" as="geometry">
            <mxPoint x="185" y="170" as="sourcePoint" />
            <mxPoint x="145" y="210" as="targetPoint" />
            <Array as="points">
              <mxPoint x="125" y="136" />
              <mxPoint x="125" y="182" />
            </Array>
          </mxGeometry>
        </mxCell>
        <mxCell id="SLKJa3lYr_q1Pw39jMBz-63" value="查看详情" style="edgeLabel;html=1;align=center;verticalAlign=middle;resizable=0;points=[];" vertex="1" connectable="0" parent="SLKJa3lYr_q1Pw39jMBz-62">
          <mxGeometry x="-0.4301" y="-4" relative="1" as="geometry">
            <mxPoint as="offset" />
          </mxGeometry>
        </mxCell>
        <mxCell id="SLKJa3lYr_q1Pw39jMBz-51" value="业务A" style="shape=umlLifeline;perimeter=lifelinePerimeter;whiteSpace=wrap;html=1;container=1;collapsible=0;recursiveResize=0;outlineConnect=0;rounded=1;shadow=0;comic=0;labelBackgroundColor=none;strokeWidth=1;fontFamily=Verdana;fontSize=12;align=center;" vertex="1" parent="1">
          <mxGeometry x="120" y="460" width="100" height="390" as="geometry" />
        </mxCell>
        <mxCell id="SLKJa3lYr_q1Pw39jMBz-52" value="" style="html=1;points=[];perimeter=orthogonalPerimeter;rounded=0;shadow=0;comic=0;labelBackgroundColor=none;strokeWidth=1;fontFamily=Verdana;fontSize=12;align=center;" vertex="1" parent="SLKJa3lYr_q1Pw39jMBz-51">
          <mxGeometry x="45" y="100" width="10" height="290" as="geometry" />
        </mxCell>
        <mxCell id="SLKJa3lYr_q1Pw39jMBz-53" value="return" style="html=1;verticalAlign=bottom;endArrow=open;dashed=1;endSize=8;labelBackgroundColor=none;fontFamily=Verdana;fontSize=12;edgeStyle=elbowEdgeStyle;elbow=vertical;" edge="1" source="SLKJa3lYr_q1Pw39jMBz-49" target="SLKJa3lYr_q1Pw39jMBz-52" parent="1">
          <mxGeometry relative="1" as="geometry">
            <mxPoint x="820" y="1006" as="targetPoint" />
            <Array as="points">
              <mxPoint x="270" y="640" />
              <mxPoint x="240" y="710" />
              <mxPoint x="240" y="990" />
            </Array>
            <mxPoint x="890" y="990" as="sourcePoint" />
          </mxGeometry>
        </mxCell>
        <mxCell id="SLKJa3lYr_q1Pw39jMBz-56" value="" style="html=1;verticalAlign=bottom;endArrow=block;entryX=0;entryY=0;labelBackgroundColor=none;fontFamily=Verdana;fontSize=12;edgeStyle=elbowEdgeStyle;elbow=vertical;" edge="1" source="SLKJa3lYr_q1Pw39jMBz-52" target="SLKJa3lYr_q1Pw39jMBz-50" parent="1">
          <mxGeometry relative="1" as="geometry">
            <mxPoint x="240" y="570" as="sourcePoint" />
            <Array as="points">
              <mxPoint x="248" y="560" />
            </Array>
          </mxGeometry>
        </mxCell>
        <mxCell id="SLKJa3lYr_q1Pw39jMBz-58" value="业务ID&lt;br&gt;申请人&lt;br&gt;申请时间" style="edgeLabel;html=1;align=center;verticalAlign=middle;resizable=0;points=[];" vertex="1" connectable="0" parent="SLKJa3lYr_q1Pw39jMBz-56">
          <mxGeometry x="-0.4759" y="1" relative="1" as="geometry">
            <mxPoint x="27" y="1" as="offset" />
          </mxGeometry>
        </mxCell>
        <mxCell id="SLKJa3lYr_q1Pw39jMBz-67" value="" style="html=1;verticalAlign=bottom;endArrow=block;entryX=0;entryY=0.427;labelBackgroundColor=none;fontFamily=Verdana;fontSize=12;edgeStyle=elbowEdgeStyle;elbow=vertical;entryDx=0;entryDy=0;entryPerimeter=0;" edge="1" parent="1" source="SLKJa3lYr_q1Pw39jMBz-52" target="SLKJa3lYr_q1Pw39jMBz-50">
          <mxGeometry relative="1" as="geometry">
            <mxPoint x="180" y="670" as="sourcePoint" />
            <mxPoint x="325" y="670.0000000000002" as="targetPoint" />
            <Array as="points" />
          </mxGeometry>
        </mxCell>
        <mxCell id="SLKJa3lYr_q1Pw39jMBz-68" value="业务详情" style="edgeLabel;html=1;align=center;verticalAlign=middle;resizable=0;points=[];" vertex="1" connectable="0" parent="SLKJa3lYr_q1Pw39jMBz-67">
          <mxGeometry x="-0.4759" y="2" relative="1" as="geometry">
            <mxPoint as="offset" />
          </mxGeometry>
        </mxCell>
        <mxCell id="SLKJa3lYr_q1Pw39jMBz-70" value="" style="endArrow=classic;html=1;exitX=1.1;exitY=0.14;exitDx=0;exitDy=0;exitPerimeter=0;entryX=1.2;entryY=0.315;entryDx=0;entryDy=0;entryPerimeter=0;" edge="1" parent="1">
          <mxGeometry width="50" height="50" relative="1" as="geometry">
            <mxPoint x="330" y="690.4000000000001" as="sourcePoint" />
            <mxPoint x="331" y="735.9000000000001" as="targetPoint" />
            <Array as="points">
              <mxPoint x="399" y="690" />
              <mxPoint x="399" y="736" />
            </Array>
          </mxGeometry>
        </mxCell>
        <mxCell id="SLKJa3lYr_q1Pw39jMBz-71" value="审核" style="edgeLabel;html=1;align=center;verticalAlign=middle;resizable=0;points=[];" vertex="1" connectable="0" parent="SLKJa3lYr_q1Pw39jMBz-70">
          <mxGeometry x="-0.4301" y="-4" relative="1" as="geometry">
            <mxPoint as="offset" />
          </mxGeometry>
        </mxCell>
        <mxCell id="SLKJa3lYr_q1Pw39jMBz-74" value="我的申请" style="shape=umlLifeline;perimeter=lifelinePerimeter;whiteSpace=wrap;html=1;container=1;collapsible=0;recursiveResize=0;outlineConnect=0;rounded=1;shadow=0;comic=0;labelBackgroundColor=none;strokeWidth=1;fontFamily=Verdana;fontSize=12;align=center;" vertex="1" parent="1">
          <mxGeometry x="440" y="460" width="100" height="390" as="geometry" />
        </mxCell>
        <mxCell id="SLKJa3lYr_q1Pw39jMBz-75" value="" style="html=1;points=[];perimeter=orthogonalPerimeter;rounded=0;shadow=0;comic=0;labelBackgroundColor=none;strokeWidth=1;fontFamily=Verdana;fontSize=12;align=center;" vertex="1" parent="SLKJa3lYr_q1Pw39jMBz-74">
          <mxGeometry x="45" y="100" width="10" height="290" as="geometry" />
        </mxCell>
        <mxCell id="SLKJa3lYr_q1Pw39jMBz-78" value="" style="html=1;verticalAlign=bottom;endArrow=block;entryX=-0.217;entryY=0.726;labelBackgroundColor=none;fontFamily=Verdana;fontSize=12;edgeStyle=elbowEdgeStyle;elbow=vertical;entryDx=0;entryDy=0;entryPerimeter=0;" edge="1" parent="1" target="SLKJa3lYr_q1Pw39jMBz-75">
          <mxGeometry relative="1" as="geometry">
            <mxPoint x="330" y="770" as="sourcePoint" />
            <mxPoint x="475" y="770.0000000000002" as="targetPoint" />
            <Array as="points">
              <mxPoint x="403" y="770" />
            </Array>
          </mxGeometry>
        </mxCell>
        <mxCell id="SLKJa3lYr_q1Pw39jMBz-80" value="审核结果" style="edgeLabel;html=1;align=center;verticalAlign=middle;resizable=0;points=[];" vertex="1" connectable="0" parent="SLKJa3lYr_q1Pw39jMBz-78">
          <mxGeometry x="-0.4759" y="1" relative="1" as="geometry">
            <mxPoint x="40" as="offset" />
          </mxGeometry>
        </mxCell>
        <mxCell id="SLKJa3lYr_q1Pw39jMBz-81" value="return" style="html=1;verticalAlign=bottom;endArrow=open;dashed=1;endSize=8;labelBackgroundColor=none;fontFamily=Verdana;fontSize=12;edgeStyle=elbowEdgeStyle;elbow=vertical;entryX=1.061;entryY=0.693;entryDx=0;entryDy=0;entryPerimeter=0;" edge="1" parent="1" target="SLKJa3lYr_q1Pw39jMBz-52">
          <mxGeometry relative="1" as="geometry">
            <mxPoint x="200" y="760" as="targetPoint" />
            <Array as="points">
              <mxPoint x="265" y="760" />
              <mxPoint x="235" y="830" />
              <mxPoint x="235" y="1110" />
            </Array>
            <mxPoint x="319.5" y="760" as="sourcePoint" />
          </mxGeometry>
        </mxCell>
        <mxCell id="SLKJa3lYr_q1Pw39jMBz-82" value="审核结果" style="edgeLabel;html=1;align=center;verticalAlign=middle;resizable=0;points=[];" vertex="1" connectable="0" parent="SLKJa3lYr_q1Pw39jMBz-81">
          <mxGeometry x="-0.5265" y="2" relative="1" as="geometry">
            <mxPoint as="offset" />
          </mxGeometry>
        </mxCell>
        <mxCell id="SLKJa3lYr_q1Pw39jMBz-83" value="" style="html=1;verticalAlign=bottom;endArrow=block;entryX=-0.324;entryY=0.07;labelBackgroundColor=none;fontFamily=Verdana;fontSize=12;edgeStyle=elbowEdgeStyle;elbow=vertical;entryDx=0;entryDy=0;entryPerimeter=0;" edge="1" parent="1" target="SLKJa3lYr_q1Pw39jMBz-75">
          <mxGeometry relative="1" as="geometry">
            <mxPoint x="330" y="580" as="sourcePoint" />
            <mxPoint x="475.0000000000001" y="580.0000000000005" as="targetPoint" />
            <Array as="points">
              <mxPoint x="490" y="580" />
            </Array>
          </mxGeometry>
        </mxCell>
        <mxCell id="SLKJa3lYr_q1Pw39jMBz-85" value="业务信息" style="edgeLabel;html=1;align=center;verticalAlign=middle;resizable=0;points=[];" vertex="1" connectable="0" parent="SLKJa3lYr_q1Pw39jMBz-83">
          <mxGeometry x="-0.1015" relative="1" as="geometry">
            <mxPoint as="offset" />
          </mxGeometry>
        </mxCell>
        <mxCell id="SLKJa3lYr_q1Pw39jMBz-86" value="教师文章申请" style="shape=umlLifeline;perimeter=lifelinePerimeter;whiteSpace=wrap;html=1;container=1;collapsible=0;recursiveResize=0;outlineConnect=0;rounded=1;shadow=0;comic=0;labelBackgroundColor=none;strokeWidth=1;fontFamily=Verdana;fontSize=12;align=center;" vertex="1" parent="1">
          <mxGeometry x="815" y="460" width="100" height="490" as="geometry" />
        </mxCell>
        <mxCell id="SLKJa3lYr_q1Pw39jMBz-87" value="" style="html=1;points=[];perimeter=orthogonalPerimeter;rounded=0;shadow=0;comic=0;labelBackgroundColor=none;strokeWidth=1;fontFamily=Verdana;fontSize=12;align=center;" vertex="1" parent="SLKJa3lYr_q1Pw39jMBz-86">
          <mxGeometry x="45" y="100" width="10" height="390" as="geometry" />
        </mxCell>
        <mxCell id="SLKJa3lYr_q1Pw39jMBz-88" value="" style="endArrow=classic;html=1;" edge="1" parent="SLKJa3lYr_q1Pw39jMBz-86">
          <mxGeometry width="50" height="50" relative="1" as="geometry">
            <mxPoint x="57" y="136" as="sourcePoint" />
            <mxPoint x="57" y="182" as="targetPoint" />
            <Array as="points">
              <mxPoint x="125" y="136" />
              <mxPoint x="125" y="182" />
            </Array>
          </mxGeometry>
        </mxCell>
        <mxCell id="SLKJa3lYr_q1Pw39jMBz-89" value="资料填写&lt;br&gt;申请" style="edgeLabel;html=1;align=center;verticalAlign=middle;resizable=0;points=[];" vertex="1" connectable="0" parent="SLKJa3lYr_q1Pw39jMBz-88">
          <mxGeometry x="-0.4301" y="-4" relative="1" as="geometry">
            <mxPoint as="offset" />
          </mxGeometry>
        </mxCell>
        <mxCell id="SLKJa3lYr_q1Pw39jMBz-90" value="教师文章" style="shape=umlLifeline;perimeter=lifelinePerimeter;whiteSpace=wrap;html=1;container=1;collapsible=0;recursiveResize=0;outlineConnect=0;rounded=1;shadow=0;comic=0;labelBackgroundColor=none;strokeWidth=1;fontFamily=Verdana;fontSize=12;align=center;" vertex="1" parent="1">
          <mxGeometry x="660" y="460" width="100" height="490" as="geometry" />
        </mxCell>
        <mxCell id="SLKJa3lYr_q1Pw39jMBz-91" value="" style="html=1;points=[];perimeter=orthogonalPerimeter;rounded=0;shadow=0;comic=0;labelBackgroundColor=none;strokeWidth=1;fontFamily=Verdana;fontSize=12;align=center;" vertex="1" parent="SLKJa3lYr_q1Pw39jMBz-90">
          <mxGeometry x="45" y="100" width="10" height="390" as="geometry" />
        </mxCell>
        <mxCell id="SLKJa3lYr_q1Pw39jMBz-92" value="return" style="html=1;verticalAlign=bottom;endArrow=open;dashed=1;endSize=8;labelBackgroundColor=none;fontFamily=Verdana;fontSize=12;edgeStyle=elbowEdgeStyle;elbow=vertical;" edge="1" target="SLKJa3lYr_q1Pw39jMBz-91" parent="1">
          <mxGeometry relative="1" as="geometry">
            <mxPoint x="1360" y="1006" as="targetPoint" />
            <Array as="points">
              <mxPoint x="810" y="640" />
              <mxPoint x="780" y="710" />
              <mxPoint x="780" y="990" />
            </Array>
            <mxPoint x="860" y="640" as="sourcePoint" />
          </mxGeometry>
        </mxCell>
        <mxCell id="SLKJa3lYr_q1Pw39jMBz-107" value="资料" style="edgeLabel;html=1;align=center;verticalAlign=middle;resizable=0;points=[];" vertex="1" connectable="0" parent="SLKJa3lYr_q1Pw39jMBz-92">
          <mxGeometry x="-0.5764" relative="1" as="geometry">
            <mxPoint as="offset" />
          </mxGeometry>
        </mxCell>
        <mxCell id="SLKJa3lYr_q1Pw39jMBz-93" value="" style="html=1;verticalAlign=bottom;endArrow=block;entryX=0;entryY=0;labelBackgroundColor=none;fontFamily=Verdana;fontSize=12;edgeStyle=elbowEdgeStyle;elbow=vertical;" edge="1" source="SLKJa3lYr_q1Pw39jMBz-91" target="SLKJa3lYr_q1Pw39jMBz-87" parent="1">
          <mxGeometry relative="1" as="geometry">
            <mxPoint x="780" y="570" as="sourcePoint" />
            <Array as="points">
              <mxPoint x="788" y="560" />
            </Array>
          </mxGeometry>
        </mxCell>
        <mxCell id="SLKJa3lYr_q1Pw39jMBz-94" value="教师ID&lt;br&gt;申请请求" style="edgeLabel;html=1;align=center;verticalAlign=middle;resizable=0;points=[];" vertex="1" connectable="0" parent="SLKJa3lYr_q1Pw39jMBz-93">
          <mxGeometry x="-0.4759" y="1" relative="1" as="geometry">
            <mxPoint x="27" y="1" as="offset" />
          </mxGeometry>
        </mxCell>
        <mxCell id="SLKJa3lYr_q1Pw39jMBz-95" value="" style="html=1;verticalAlign=bottom;endArrow=block;entryX=0;entryY=0.427;labelBackgroundColor=none;fontFamily=Verdana;fontSize=12;edgeStyle=elbowEdgeStyle;elbow=vertical;entryDx=0;entryDy=0;entryPerimeter=0;" edge="1" parent="1">
          <mxGeometry relative="1" as="geometry">
            <mxPoint x="714" y="767.0033333333334" as="sourcePoint" />
            <mxPoint x="859" y="766.9999999999999" as="targetPoint" />
            <Array as="points" />
          </mxGeometry>
        </mxCell>
        <mxCell id="SLKJa3lYr_q1Pw39jMBz-96" value="业务详情" style="edgeLabel;html=1;align=center;verticalAlign=middle;resizable=0;points=[];" vertex="1" connectable="0" parent="SLKJa3lYr_q1Pw39jMBz-95">
          <mxGeometry x="-0.4759" y="2" relative="1" as="geometry">
            <mxPoint as="offset" />
          </mxGeometry>
        </mxCell>
        <mxCell id="SLKJa3lYr_q1Pw39jMBz-99" value="待审核" style="shape=umlLifeline;perimeter=lifelinePerimeter;whiteSpace=wrap;html=1;container=1;collapsible=0;recursiveResize=0;outlineConnect=0;rounded=1;shadow=0;comic=0;labelBackgroundColor=none;strokeWidth=1;fontFamily=Verdana;fontSize=12;align=center;" vertex="1" parent="1">
          <mxGeometry x="980" y="460" width="100" height="490" as="geometry" />
        </mxCell>
        <mxCell id="SLKJa3lYr_q1Pw39jMBz-100" value="" style="html=1;points=[];perimeter=orthogonalPerimeter;rounded=0;shadow=0;comic=0;labelBackgroundColor=none;strokeWidth=1;fontFamily=Verdana;fontSize=12;align=center;" vertex="1" parent="SLKJa3lYr_q1Pw39jMBz-99">
          <mxGeometry x="45" y="100" width="10" height="390" as="geometry" />
        </mxCell>
        <mxCell id="SLKJa3lYr_q1Pw39jMBz-103" value="return" style="html=1;verticalAlign=bottom;endArrow=open;dashed=1;endSize=8;labelBackgroundColor=none;fontFamily=Verdana;fontSize=12;edgeStyle=elbowEdgeStyle;elbow=vertical;entryX=1.061;entryY=0.693;entryDx=0;entryDy=0;entryPerimeter=0;" edge="1" parent="1">
          <mxGeometry relative="1" as="geometry">
            <mxPoint x="715.6099999999999" y="840.97" as="targetPoint" />
            <Array as="points">
              <mxPoint x="805" y="840" />
              <mxPoint x="775" y="910" />
              <mxPoint x="775" y="1190" />
            </Array>
            <mxPoint x="859.5" y="840" as="sourcePoint" />
          </mxGeometry>
        </mxCell>
        <mxCell id="SLKJa3lYr_q1Pw39jMBz-104" value="审核结果" style="edgeLabel;html=1;align=center;verticalAlign=middle;resizable=0;points=[];" vertex="1" connectable="0" parent="SLKJa3lYr_q1Pw39jMBz-103">
          <mxGeometry x="-0.5265" y="2" relative="1" as="geometry">
            <mxPoint as="offset" />
          </mxGeometry>
        </mxCell>
        <mxCell id="SLKJa3lYr_q1Pw39jMBz-108" value="" style="html=1;verticalAlign=bottom;endArrow=block;entryX=0.117;entryY=0.329;labelBackgroundColor=none;fontFamily=Verdana;fontSize=12;edgeStyle=elbowEdgeStyle;elbow=vertical;entryDx=0;entryDy=0;entryPerimeter=0;" edge="1" parent="1">
          <mxGeometry relative="1" as="geometry">
            <mxPoint x="870" y="681.58" as="sourcePoint" />
            <mxPoint x="1026.17" y="682.4099999999999" as="targetPoint" />
            <Array as="points">
              <mxPoint x="943" y="681.58" />
            </Array>
          </mxGeometry>
        </mxCell>
        <mxCell id="SLKJa3lYr_q1Pw39jMBz-109" value="教师ID&lt;br&gt;申请时间&lt;br&gt;业务模块ID" style="edgeLabel;html=1;align=center;verticalAlign=middle;resizable=0;points=[];" vertex="1" connectable="0" parent="SLKJa3lYr_q1Pw39jMBz-108">
          <mxGeometry x="-0.4759" y="1" relative="1" as="geometry">
            <mxPoint x="27" y="1" as="offset" />
          </mxGeometry>
        </mxCell>
        <mxCell id="SLKJa3lYr_q1Pw39jMBz-110" value="" style="endArrow=classic;html=1;exitX=1.2;exitY=0.121;exitDx=0;exitDy=0;exitPerimeter=0;entryX=1.1;entryY=0.286;entryDx=0;entryDy=0;entryPerimeter=0;" edge="1" parent="1">
          <mxGeometry width="50" height="50" relative="1" as="geometry">
            <mxPoint x="1038" y="699.9999999999999" as="sourcePoint" />
            <mxPoint x="1037" y="747.85" as="targetPoint" />
            <Array as="points">
              <mxPoint x="1106" y="700.91" />
              <mxPoint x="1106" y="746.91" />
            </Array>
          </mxGeometry>
        </mxCell>
        <mxCell id="SLKJa3lYr_q1Pw39jMBz-111" value="查看详情" style="edgeLabel;html=1;align=center;verticalAlign=middle;resizable=0;points=[];" vertex="1" connectable="0" parent="SLKJa3lYr_q1Pw39jMBz-110">
          <mxGeometry x="-0.4301" y="-4" relative="1" as="geometry">
            <mxPoint as="offset" />
          </mxGeometry>
        </mxCell>
        <mxCell id="SLKJa3lYr_q1Pw39jMBz-112" value="return" style="html=1;verticalAlign=bottom;endArrow=open;dashed=1;endSize=8;labelBackgroundColor=none;fontFamily=Verdana;fontSize=12;edgeStyle=elbowEdgeStyle;elbow=vertical;" edge="1" parent="1">
          <mxGeometry relative="1" as="geometry">
            <mxPoint x="870" y="750" as="targetPoint" />
            <Array as="points">
              <mxPoint x="965" y="750" />
              <mxPoint x="935" y="820" />
              <mxPoint x="935" y="1100" />
            </Array>
            <mxPoint x="1019.5" y="750" as="sourcePoint" />
          </mxGeometry>
        </mxCell>
        <mxCell id="SLKJa3lYr_q1Pw39jMBz-114" value="return" style="html=1;verticalAlign=bottom;endArrow=open;dashed=1;endSize=8;labelBackgroundColor=none;fontFamily=Verdana;fontSize=12;edgeStyle=elbowEdgeStyle;elbow=vertical;" edge="1" parent="1">
          <mxGeometry relative="1" as="geometry">
            <mxPoint x="720" y="750" as="targetPoint" />
            <Array as="points">
              <mxPoint x="805" y="750" />
              <mxPoint x="775" y="820" />
              <mxPoint x="775" y="1100" />
            </Array>
            <mxPoint x="859.5" y="750" as="sourcePoint" />
          </mxGeometry>
        </mxCell>
        <mxCell id="SLKJa3lYr_q1Pw39jMBz-115" value="" style="html=1;verticalAlign=bottom;endArrow=block;labelBackgroundColor=none;fontFamily=Verdana;fontSize=12;edgeStyle=elbowEdgeStyle;elbow=vertical;" edge="1" parent="1">
          <mxGeometry relative="1" as="geometry">
            <mxPoint x="870" y="767.0033333333336" as="sourcePoint" />
            <mxPoint x="1020" y="767" as="targetPoint" />
            <Array as="points" />
          </mxGeometry>
        </mxCell>
        <mxCell id="SLKJa3lYr_q1Pw39jMBz-116" value="业务详情" style="edgeLabel;html=1;align=center;verticalAlign=middle;resizable=0;points=[];" vertex="1" connectable="0" parent="SLKJa3lYr_q1Pw39jMBz-115">
          <mxGeometry x="-0.4759" y="2" relative="1" as="geometry">
            <mxPoint as="offset" />
          </mxGeometry>
        </mxCell>
        <mxCell id="SLKJa3lYr_q1Pw39jMBz-117" value="" style="endArrow=classic;html=1;exitX=1.2;exitY=0.121;exitDx=0;exitDy=0;exitPerimeter=0;entryX=1.1;entryY=0.286;entryDx=0;entryDy=0;entryPerimeter=0;" edge="1" parent="1">
          <mxGeometry width="50" height="50" relative="1" as="geometry">
            <mxPoint x="1037" y="790" as="sourcePoint" />
            <mxPoint x="1036" y="837.8499999999999" as="targetPoint" />
            <Array as="points">
              <mxPoint x="1105" y="790.91" />
              <mxPoint x="1105" y="836.91" />
            </Array>
          </mxGeometry>
        </mxCell>
        <mxCell id="SLKJa3lYr_q1Pw39jMBz-118" value="审核" style="edgeLabel;html=1;align=center;verticalAlign=middle;resizable=0;points=[];" vertex="1" connectable="0" parent="SLKJa3lYr_q1Pw39jMBz-117">
          <mxGeometry x="-0.4301" y="-4" relative="1" as="geometry">
            <mxPoint as="offset" />
          </mxGeometry>
        </mxCell>
        <mxCell id="SLKJa3lYr_q1Pw39jMBz-119" value="return" style="html=1;verticalAlign=bottom;endArrow=open;dashed=1;endSize=8;labelBackgroundColor=none;fontFamily=Verdana;fontSize=12;edgeStyle=elbowEdgeStyle;elbow=vertical;entryX=1.061;entryY=0.693;entryDx=0;entryDy=0;entryPerimeter=0;" edge="1" parent="1">
          <mxGeometry relative="1" as="geometry">
            <mxPoint x="869.9999999999999" y="840.97" as="targetPoint" />
            <Array as="points">
              <mxPoint x="959.39" y="840" />
              <mxPoint x="929.39" y="910" />
              <mxPoint x="929.39" y="1190" />
            </Array>
            <mxPoint x="1020" y="841" as="sourcePoint" />
          </mxGeometry>
        </mxCell>
        <mxCell id="SLKJa3lYr_q1Pw39jMBz-120" value="审核结果" style="edgeLabel;html=1;align=center;verticalAlign=middle;resizable=0;points=[];" vertex="1" connectable="0" parent="SLKJa3lYr_q1Pw39jMBz-119">
          <mxGeometry x="-0.5265" y="2" relative="1" as="geometry">
            <mxPoint as="offset" />
          </mxGeometry>
        </mxCell>
        <mxCell id="SLKJa3lYr_q1Pw39jMBz-121" value="" style="endArrow=classic;html=1;" edge="1" parent="1">
          <mxGeometry width="50" height="50" relative="1" as="geometry">
            <mxPoint x="717" y="870" as="sourcePoint" />
            <mxPoint x="717" y="916" as="targetPoint" />
            <Array as="points">
              <mxPoint x="785" y="870" />
              <mxPoint x="785" y="916" />
            </Array>
          </mxGeometry>
        </mxCell>
        <mxCell id="SLKJa3lYr_q1Pw39jMBz-122" value="审核通过显示文章" style="edgeLabel;html=1;align=center;verticalAlign=middle;resizable=0;points=[];" vertex="1" connectable="0" parent="SLKJa3lYr_q1Pw39jMBz-121">
          <mxGeometry x="-0.4301" y="-4" relative="1" as="geometry">
            <mxPoint as="offset" />
          </mxGeometry>
        </mxCell>
        <mxCell id="SLKJa3lYr_q1Pw39jMBz-123" value="待审核" style="shape=umlLifeline;perimeter=lifelinePerimeter;whiteSpace=wrap;html=1;container=1;collapsible=0;recursiveResize=0;outlineConnect=0;rounded=1;shadow=0;comic=0;labelBackgroundColor=none;strokeWidth=1;fontFamily=Verdana;fontSize=12;align=center;" vertex="1" parent="1">
          <mxGeometry x="815" y="1000" width="100" height="490" as="geometry" />
        </mxCell>
        <mxCell id="SLKJa3lYr_q1Pw39jMBz-124" value="" style="html=1;points=[];perimeter=orthogonalPerimeter;rounded=0;shadow=0;comic=0;labelBackgroundColor=none;strokeWidth=1;fontFamily=Verdana;fontSize=12;align=center;" vertex="1" parent="SLKJa3lYr_q1Pw39jMBz-123">
          <mxGeometry x="45" y="100" width="10" height="290" as="geometry" />
        </mxCell>
        <mxCell id="SLKJa3lYr_q1Pw39jMBz-127" value="教师文章" style="shape=umlLifeline;perimeter=lifelinePerimeter;whiteSpace=wrap;html=1;container=1;collapsible=0;recursiveResize=0;outlineConnect=0;rounded=1;shadow=0;comic=0;labelBackgroundColor=none;strokeWidth=1;fontFamily=Verdana;fontSize=12;align=center;" vertex="1" parent="1">
          <mxGeometry x="660" y="1000" width="100" height="490" as="geometry" />
        </mxCell>
        <mxCell id="SLKJa3lYr_q1Pw39jMBz-128" value="" style="html=1;points=[];perimeter=orthogonalPerimeter;rounded=0;shadow=0;comic=0;labelBackgroundColor=none;strokeWidth=1;fontFamily=Verdana;fontSize=12;align=center;" vertex="1" parent="SLKJa3lYr_q1Pw39jMBz-127">
          <mxGeometry x="45" y="100" width="10" height="290" as="geometry" />
        </mxCell>
        <mxCell id="SLKJa3lYr_q1Pw39jMBz-133" value="" style="html=1;verticalAlign=bottom;endArrow=block;entryX=0;entryY=0.427;labelBackgroundColor=none;fontFamily=Verdana;fontSize=12;edgeStyle=elbowEdgeStyle;elbow=vertical;entryDx=0;entryDy=0;entryPerimeter=0;" edge="1" parent="1">
          <mxGeometry relative="1" as="geometry">
            <mxPoint x="714" y="1176.0033333333336" as="sourcePoint" />
            <mxPoint x="859" y="1176" as="targetPoint" />
            <Array as="points" />
          </mxGeometry>
        </mxCell>
        <mxCell id="SLKJa3lYr_q1Pw39jMBz-134" value="业务详情" style="edgeLabel;html=1;align=center;verticalAlign=middle;resizable=0;points=[];" vertex="1" connectable="0" parent="SLKJa3lYr_q1Pw39jMBz-133">
          <mxGeometry x="-0.4759" y="2" relative="1" as="geometry">
            <mxPoint as="offset" />
          </mxGeometry>
        </mxCell>
        <mxCell id="SLKJa3lYr_q1Pw39jMBz-137" value="return" style="html=1;verticalAlign=bottom;endArrow=open;dashed=1;endSize=8;labelBackgroundColor=none;fontFamily=Verdana;fontSize=12;edgeStyle=elbowEdgeStyle;elbow=vertical;entryX=1.061;entryY=0.693;entryDx=0;entryDy=0;entryPerimeter=0;" edge="1" parent="1">
          <mxGeometry relative="1" as="geometry">
            <mxPoint x="715.6099999999999" y="1250.97" as="targetPoint" />
            <Array as="points">
              <mxPoint x="805" y="1250" />
              <mxPoint x="775" y="1320" />
              <mxPoint x="775" y="1600" />
            </Array>
            <mxPoint x="859.5" y="1250" as="sourcePoint" />
          </mxGeometry>
        </mxCell>
        <mxCell id="SLKJa3lYr_q1Pw39jMBz-138" value="审核结果" style="edgeLabel;html=1;align=center;verticalAlign=middle;resizable=0;points=[];" vertex="1" connectable="0" parent="SLKJa3lYr_q1Pw39jMBz-137">
          <mxGeometry x="-0.5265" y="2" relative="1" as="geometry">
            <mxPoint as="offset" />
          </mxGeometry>
        </mxCell>
        <mxCell id="SLKJa3lYr_q1Pw39jMBz-139" value="" style="html=1;verticalAlign=bottom;endArrow=block;entryX=0.117;entryY=0.329;labelBackgroundColor=none;fontFamily=Verdana;fontSize=12;edgeStyle=elbowEdgeStyle;elbow=vertical;entryDx=0;entryDy=0;entryPerimeter=0;" edge="1" parent="1">
          <mxGeometry relative="1" as="geometry">
            <mxPoint x="720" y="1101" as="sourcePoint" />
            <mxPoint x="866.1700000000001" y="1100.83" as="targetPoint" />
            <Array as="points">
              <mxPoint x="783" y="1100" />
            </Array>
          </mxGeometry>
        </mxCell>
        <mxCell id="SLKJa3lYr_q1Pw39jMBz-140" value="教师ID&lt;br&gt;申请时间&lt;br&gt;业务模块ID" style="edgeLabel;html=1;align=center;verticalAlign=middle;resizable=0;points=[];" vertex="1" connectable="0" parent="SLKJa3lYr_q1Pw39jMBz-139">
          <mxGeometry x="-0.4759" y="1" relative="1" as="geometry">
            <mxPoint x="27" y="1" as="offset" />
          </mxGeometry>
        </mxCell>
        <mxCell id="SLKJa3lYr_q1Pw39jMBz-141" value="" style="endArrow=classic;html=1;exitX=1.2;exitY=0.121;exitDx=0;exitDy=0;exitPerimeter=0;entryX=1.1;entryY=0.286;entryDx=0;entryDy=0;entryPerimeter=0;" edge="1" parent="1">
          <mxGeometry width="50" height="50" relative="1" as="geometry">
            <mxPoint x="871" y="1110" as="sourcePoint" />
            <mxPoint x="870" y="1157.85" as="targetPoint" />
            <Array as="points">
              <mxPoint x="939" y="1110.9099999999999" />
              <mxPoint x="939" y="1156.9099999999999" />
            </Array>
          </mxGeometry>
        </mxCell>
        <mxCell id="SLKJa3lYr_q1Pw39jMBz-142" value="查看详情" style="edgeLabel;html=1;align=center;verticalAlign=middle;resizable=0;points=[];" vertex="1" connectable="0" parent="SLKJa3lYr_q1Pw39jMBz-141">
          <mxGeometry x="-0.4301" y="-4" relative="1" as="geometry">
            <mxPoint as="offset" />
          </mxGeometry>
        </mxCell>
        <mxCell id="SLKJa3lYr_q1Pw39jMBz-144" value="return" style="html=1;verticalAlign=bottom;endArrow=open;dashed=1;endSize=8;labelBackgroundColor=none;fontFamily=Verdana;fontSize=12;edgeStyle=elbowEdgeStyle;elbow=vertical;" edge="1" parent="1">
          <mxGeometry relative="1" as="geometry">
            <mxPoint x="720" y="1159" as="targetPoint" />
            <Array as="points">
              <mxPoint x="805" y="1159" />
              <mxPoint x="775" y="1229" />
              <mxPoint x="775" y="1509" />
            </Array>
            <mxPoint x="859.5" y="1159" as="sourcePoint" />
          </mxGeometry>
        </mxCell>
        <mxCell id="SLKJa3lYr_q1Pw39jMBz-147" value="" style="endArrow=classic;html=1;exitX=1.2;exitY=0.121;exitDx=0;exitDy=0;exitPerimeter=0;entryX=1.1;entryY=0.286;entryDx=0;entryDy=0;entryPerimeter=0;" edge="1" parent="1">
          <mxGeometry width="50" height="50" relative="1" as="geometry">
            <mxPoint x="871" y="1190" as="sourcePoint" />
            <mxPoint x="870" y="1237.85" as="targetPoint" />
            <Array as="points">
              <mxPoint x="939" y="1190.9099999999999" />
              <mxPoint x="939" y="1236.9099999999999" />
            </Array>
          </mxGeometry>
        </mxCell>
        <mxCell id="SLKJa3lYr_q1Pw39jMBz-148" value="审核" style="edgeLabel;html=1;align=center;verticalAlign=middle;resizable=0;points=[];" vertex="1" connectable="0" parent="SLKJa3lYr_q1Pw39jMBz-147">
          <mxGeometry x="-0.4301" y="-4" relative="1" as="geometry">
            <mxPoint as="offset" />
          </mxGeometry>
        </mxCell>
        <mxCell id="SLKJa3lYr_q1Pw39jMBz-151" value="" style="endArrow=classic;html=1;" edge="1" parent="1">
          <mxGeometry width="50" height="50" relative="1" as="geometry">
            <mxPoint x="717" y="1280" as="sourcePoint" />
            <mxPoint x="717" y="1326" as="targetPoint" />
            <Array as="points">
              <mxPoint x="785" y="1280" />
              <mxPoint x="785" y="1326" />
            </Array>
          </mxGeometry>
        </mxCell>
        <mxCell id="SLKJa3lYr_q1Pw39jMBz-152" value="审核通过显示文章" style="edgeLabel;html=1;align=center;verticalAlign=middle;resizable=0;points=[];" vertex="1" connectable="0" parent="SLKJa3lYr_q1Pw39jMBz-151">
          <mxGeometry x="-0.4301" y="-4" relative="1" as="geometry">
            <mxPoint as="offset" />
          </mxGeometry>
        </mxCell>
        <mxCell id="SLKJa3lYr_q1Pw39jMBz-153" value="已审核" style="shape=umlLifeline;perimeter=lifelinePerimeter;whiteSpace=wrap;html=1;container=1;collapsible=0;recursiveResize=0;outlineConnect=0;rounded=1;shadow=0;comic=0;labelBackgroundColor=none;strokeWidth=1;fontFamily=Verdana;fontSize=12;align=center;flipH=0;" vertex="1" parent="1">
          <mxGeometry x="970" y="1000" width="100" height="490" as="geometry" />
        </mxCell>
        <mxCell id="SLKJa3lYr_q1Pw39jMBz-154" value="" style="html=1;points=[];perimeter=orthogonalPerimeter;rounded=0;shadow=0;comic=0;labelBackgroundColor=none;strokeWidth=1;fontFamily=Verdana;fontSize=12;align=center;" vertex="1" parent="SLKJa3lYr_q1Pw39jMBz-153">
          <mxGeometry x="45" y="100" width="10" height="290" as="geometry" />
        </mxCell>
        <mxCell id="SLKJa3lYr_q1Pw39jMBz-155" value="我的请假" style="shape=umlLifeline;perimeter=lifelinePerimeter;whiteSpace=wrap;html=1;container=1;collapsible=0;recursiveResize=0;outlineConnect=0;rounded=1;shadow=0;comic=0;labelBackgroundColor=none;strokeWidth=1;fontFamily=Verdana;fontSize=12;align=center;flipH=0;" vertex="1" parent="SLKJa3lYr_q1Pw39jMBz-153">
          <mxGeometry x="-310" width="100" height="490" as="geometry" />
        </mxCell>
        <mxCell id="SLKJa3lYr_q1Pw39jMBz-156" value="" style="html=1;points=[];perimeter=orthogonalPerimeter;rounded=0;shadow=0;comic=0;labelBackgroundColor=none;strokeWidth=1;fontFamily=Verdana;fontSize=12;align=center;" vertex="1" parent="SLKJa3lYr_q1Pw39jMBz-155">
          <mxGeometry x="45" y="100" width="10" height="290" as="geometry" />
        </mxCell>
        <mxCell id="SLKJa3lYr_q1Pw39jMBz-157" value="待审核" style="shape=umlLifeline;perimeter=lifelinePerimeter;whiteSpace=wrap;html=1;container=1;collapsible=0;recursiveResize=0;outlineConnect=0;rounded=1;shadow=0;comic=0;labelBackgroundColor=none;strokeWidth=1;fontFamily=Verdana;fontSize=12;align=center;flipH=0;" vertex="1" parent="SLKJa3lYr_q1Pw39jMBz-153">
          <mxGeometry x="-155" width="100" height="490" as="geometry" />
        </mxCell>
        <mxCell id="SLKJa3lYr_q1Pw39jMBz-158" value="" style="html=1;points=[];perimeter=orthogonalPerimeter;rounded=0;shadow=0;comic=0;labelBackgroundColor=none;strokeWidth=1;fontFamily=Verdana;fontSize=12;align=center;" vertex="1" parent="SLKJa3lYr_q1Pw39jMBz-157">
          <mxGeometry x="45" y="100" width="10" height="290" as="geometry" />
        </mxCell>
        <mxCell id="SLKJa3lYr_q1Pw39jMBz-159" value="" style="html=1;verticalAlign=bottom;endArrow=block;entryX=0;entryY=0.427;labelBackgroundColor=none;fontFamily=Verdana;fontSize=12;edgeStyle=elbowEdgeStyle;elbow=vertical;entryDx=0;entryDy=0;entryPerimeter=0;" edge="1" parent="1">
          <mxGeometry relative="1" as="geometry">
            <mxPoint x="870" y="1250.3333333333335" as="sourcePoint" />
            <mxPoint x="1015" y="1250.33" as="targetPoint" />
            <Array as="points" />
          </mxGeometry>
        </mxCell>
        <mxCell id="SLKJa3lYr_q1Pw39jMBz-160" value="教师ID&lt;br&gt;申请时间&lt;br&gt;业务模块ID&lt;br&gt;审核结果" style="edgeLabel;html=1;align=center;verticalAlign=middle;resizable=0;points=[];" vertex="1" connectable="0" parent="SLKJa3lYr_q1Pw39jMBz-159">
          <mxGeometry x="-0.4759" y="2" relative="1" as="geometry">
            <mxPoint x="62" y="2" as="offset" />
          </mxGeometry>
        </mxCell>
        <mxCell id="SLKJa3lYr_q1Pw39jMBz-162" value="所有请假" style="shape=umlLifeline;perimeter=lifelinePerimeter;whiteSpace=wrap;html=1;container=1;collapsible=0;recursiveResize=0;outlineConnect=0;rounded=1;shadow=0;comic=0;labelBackgroundColor=none;strokeWidth=1;fontFamily=Verdana;fontSize=12;align=center;flipH=0;" vertex="1" parent="1">
          <mxGeometry x="510" y="1000" width="100" height="490" as="geometry" />
        </mxCell>
        <mxCell id="SLKJa3lYr_q1Pw39jMBz-163" value="" style="html=1;points=[];perimeter=orthogonalPerimeter;rounded=0;shadow=0;comic=0;labelBackgroundColor=none;strokeWidth=1;fontFamily=Verdana;fontSize=12;align=center;" vertex="1" parent="SLKJa3lYr_q1Pw39jMBz-162">
          <mxGeometry x="45" y="100" width="10" height="290" as="geometry" />
        </mxCell>
      </root>
    </mxGraphModel>
  </diagram>
</mxfile>
